<?xml version="1.0" encoding="iso-8859-1"?>
<!-- Generator: Adobe Illustrator 19.0.0, SVG Export Plug-In . SVG Version: 6.00 Build 0)  -->
<svg version="1.1" id="Capa_1" xmlns="http://www.w3.org/2000/svg" xmlns:xlink="http://www.w3.org/1999/xlink" x="0px" y="0px"
	 viewBox="0 0 512.001 512.001" style="enable-background:new 0 0 512.001 512.001;" xml:space="preserve">
<g>
	<g>
		<path d="M345.075,126.02V69.268c0-8.894-7.21-16.104-16.104-16.104H183.029c-8.894,0-16.104,7.21-16.104,16.104v56.752h-45.663
			v332.818h269.475V126.02H345.075z M312.867,125.892H199.133v-40.52h113.733V125.892z"/>
	</g>
</g>
<g>
	<g>
		<path d="M54.741,126.02C24.557,126.02,0,150.576,0,180.76v223.337c0,30.183,24.557,54.74,54.741,54.74h34.313V126.02H54.741z"/>
	</g>
</g>
<g>
	<g>
		<path d="M457.26,126.02h-34.313v332.818h34.313c30.184,0,54.741-24.557,54.741-54.74V180.76
			C512,150.576,487.443,126.02,457.26,126.02z"/>
	</g>
</g>
<g>
</g>
<g>
</g>
<g>
</g>
<g>
</g>
<g>
</g>
<g>
</g>
<g>
</g>
<g>
</g>
<g>
</g>
<g>
</g>
<g>
</g>
<g>
</g>
<g>
</g>
<g>
</g>
<g>
</g>
</svg>
